<?xml version="1.0" standalone="no"?><!DOCTYPE svg PUBLIC "-//W3C//DTD SVG 1.1//EN" "http://www.w3.org/Graphics/SVG/1.1/DTD/svg11.dtd"><svg t="1570197348972" class="icon" viewBox="0 0 1024 1024" version="1.1" xmlns="http://www.w3.org/2000/svg" p-id="9474" xmlns:xlink="http://www.w3.org/1999/xlink" width="200" height="200"><defs><style type="text/css"></style></defs><path d="M512 512.09998m-413.919156 0a413.919156 413.919156 0 1 0 827.838312 0 413.919156 413.919156 0 1 0-827.838312 0Z" fill="#F0C48A" p-id="9475"></path><path d="M338.833822 13.397383h341.933216v70.586214h-341.933216z" fill="#FFFFFF" p-id="9476"></path><path d="M385.624683 56.588947h255.350127V72.185901H385.624683zM322.237063 664.870143V11.997657h41.991799l45.191173 151.770357v336.134349h-43.591486v164.96778zM701.762937 664.870143V11.997657h-42.191759l-44.991213 151.770357v336.134349h43.591486v164.96778z" fill="#D3E6F8" p-id="9477"></path><path d="M663.170475 17.996485h34.993165V658.07147h-34.993165zM403.221246 658.07147h-34.993166V17.996485l34.993166 113.177895z" fill="#7BABF1" p-id="9478"></path><path d="M386.624487 664.870143h250.950987v64.987307H386.624487z" fill="#A4CFF2" p-id="9479"></path><path d="M576.787346 673.868385h50.79008v46.990822h-50.79008z" fill="#7BABF1" p-id="9480"></path><path d="M267.647725 730.057411h488.904511v44.191369H267.647725z" fill="#D3E6F8" p-id="9481"></path><path d="M694.364382 734.656512h52.589729v33.593439h-52.589729z" fill="#A4CFF2" p-id="9482"></path><path d="M479.206405 774.24878h65.787151v237.953524h-65.787151z" fill="#FFFFFF" p-id="9483"></path><path d="M517.198985 781.447374h20.196055v226.355789h-20.196055z" fill="#D3E6F8" p-id="9484"></path><path d="M409.420035 163.768014h205.15993v276.146065H409.420035z" fill="#FD919E" p-id="9485"></path><path d="M502.71825 378.749957a58.188635 58.188635 0 1 0 18.644631-114.874047 58.188635 58.188635 0 1 0-18.644631 114.874047Z" fill="#E8677D" p-id="9486"></path><path d="M365.828549 499.902363H657.97149v164.96778H365.828549z" fill="#FD919E" p-id="9487"></path><path d="M399.222027 535.895333h111.178285v93.1818h-111.178285z" fill="#E8677D" p-id="9488"></path><path d="M701.762937 548.292912h51.589924v66.387033h-49.790276M453.811365 11.997657H569.988674v76.385081h-116.177309z" fill="#7BABF1" p-id="9489"></path><path d="M614.579965 451.511814H409.420035c-6.39875 0-11.797696-5.198985-11.797696-11.797696v-275.946104c0-6.39875 5.198985-11.797696 11.797696-11.797696h205.15993c6.39875 0 11.797696 5.198985 11.797696 11.797696v276.146065c0 6.39875-5.398946 11.597735-11.797696 11.597735zM421.217731 428.116384h181.764499V175.365749h-181.764499V428.116384z" fill="#4C4372" p-id="9490"></path><path d="M512 391.123609c-38.592462 0-69.78637-31.393868-69.78637-69.78637 0-38.592462 31.393868-69.78637 69.78637-69.78637s69.78637 31.393868 69.78637 69.78637-31.193907 69.78637-69.78637 69.78637z m0-116.177309c-25.595001 0-46.390939 20.795938-46.390939 46.390939 0 25.595001 20.795938 46.390939 46.390939 46.390939 25.595001 0 46.390939-20.795938 46.390939-46.390939 0-25.595001-20.795938-46.390939-46.390939-46.390939zM658.171451 676.667838H365.828549c-6.39875 0-11.797696-5.198985-11.797696-11.797695v-164.96778c0-6.39875 5.198985-11.797696 11.797696-11.797696H657.97149c6.39875 0 11.797696 5.198985 11.797696 11.797696v164.96778c0 6.598711-5.198985 11.797696-11.597735 11.797695z m-280.545206-23.39543h268.74751v-141.572349H377.626245v141.572349z" fill="#4C4372" p-id="9491"></path><path d="M510.400312 640.674868h-111.178285c-6.39875 0-11.797696-5.198985-11.797696-11.797696v-93.1818c0-6.39875 5.198985-11.797696 11.797696-11.797696h111.178285c6.39875 0 11.797696 5.198985 11.797696 11.797696v93.1818c-0.199961 6.598711-5.398946 11.797696-11.797696 11.797696z m-99.380589-23.39543h87.582894v-69.78637h-87.582894v69.78637z" fill="#4C4372" p-id="9492"></path><path d="M543.393868 548.292912m-9.598125 0a9.598125 9.598125 0 1 0 19.196251 0 9.598125 9.598125 0 1 0-19.196251 0Z" fill="#4C4372" p-id="9493"></path><path d="M588.785003 548.292912c0 5.198985-4.19918 9.598125-9.598125 9.598125-5.198985 0-9.598125-4.19918-9.598126-9.598125 0-5.198985 4.19918-9.598125 9.598126-9.598126 5.398946 0 9.598125 4.19918 9.598125 9.598126z" fill="#4C4372" p-id="9494"></path><path d="M615.179848 548.292912m-9.598126 0a9.598125 9.598125 0 1 0 19.196251 0 9.598125 9.598125 0 1 0-19.196251 0Z" fill="#4C4372" p-id="9495"></path><path d="M543.393868 582.486233m-9.598125 0a9.598125 9.598125 0 1 0 19.196251 0 9.598125 9.598125 0 1 0-19.196251 0Z" fill="#4C4372" p-id="9496"></path><path d="M588.785003 582.486233c0 5.198985-4.19918 9.598125-9.598125 9.598126-5.198985 0-9.598125-4.19918-9.598126-9.598126 0-5.198985 4.19918-9.598125 9.598126-9.598125 5.398946 0 9.598125 4.19918 9.598125 9.598125z" fill="#4C4372" p-id="9497"></path><path d="M615.179848 582.486233m-9.598126 0a9.598125 9.598125 0 1 0 19.196251 0 9.598125 9.598125 0 1 0-19.196251 0Z" fill="#4C4372" p-id="9498"></path><path d="M543.393868 616.679555m-9.598125 0a9.598125 9.598125 0 1 0 19.196251 0 9.598125 9.598125 0 1 0-19.196251 0Z" fill="#4C4372" p-id="9499"></path><path d="M588.785003 616.679555c0 5.198985-4.19918 9.598125-9.598125 9.598125-5.198985 0-9.598125-4.19918-9.598126-9.598125 0-5.198985 4.19918-9.598125 9.598126-9.598126 5.398946 0 9.598125 4.19918 9.598125 9.598126z" fill="#4C4372" p-id="9500"></path><path d="M615.179848 616.679555m-9.598126 0a9.598125 9.598125 0 1 0 19.196251 0 9.598125 9.598125 0 1 0-19.196251 0Z" fill="#4C4372" p-id="9501"></path><path d="M365.828549 676.667838H322.037102c-6.39875 0-11.797696-5.198985-11.797696-11.797695V11.997657c0-6.39875 5.198985-11.797696 11.797696-11.797696h42.19176c5.198985 0 9.798086 3.399336 11.197812 8.39836l44.991213 151.770357c0.399922 0.999805 0.399922 2.19957 0.399922 3.399336v336.134349c0 6.39875-5.198985 11.797696-11.797696 11.797696h-31.79379v153.170084c0.399922 6.598711-4.799063 11.797696-11.397774 11.797695z m-31.993751-23.39543H354.030853V500.102324c0-6.39875 5.198985-11.797696 11.797696-11.797696h31.79379V165.367702l-42.191759-141.77231h-21.595782v629.677016zM701.762937 676.667838h-43.591486c-6.39875 0-11.797696-5.198985-11.797696-11.797695v-153.170084h-31.79379c-6.39875 0-11.797696-5.198985-11.797696-11.797696V163.768014c0-1.199766 0.199961-2.19957 0.399922-3.399336l44.991213-151.770357c1.399727-4.999024 5.998828-8.39836 11.197813-8.39836h42.191759c6.39875 0 11.797696 5.198985 11.797696 11.797696v653.072446c0.199961 6.39875-5.198985 11.597735-11.597735 11.597735z m-31.993751-23.39543H689.965241V23.595392h-21.595782l-42.191759 141.77231V488.104667H657.97149c6.39875 0 11.797696 5.198985 11.797696 11.797696v153.370045z" fill="#4C4372" p-id="9502"></path><path d="M636.575669 95.781293H385.624683c-6.39875 0-11.797696-5.198985-11.797696-11.797696 0-6.39875 5.198985-11.797696 11.797696-11.797696h250.950986c6.39875 0 11.797696 5.198985 11.797696 11.797696 0 6.39875-5.398946 11.797696-11.797696 11.797696z" fill="#4C4372" p-id="9503"></path><path d="M753.352861 626.27768h-49.790276c-6.39875 0-11.797696-5.198985-11.797695-11.797696 0-6.39875 5.198985-11.797696 11.797695-11.797695h38.192541v-42.991604H701.962898c-6.39875 0-11.797696-5.198985-11.797696-11.797695 0-6.39875 5.198985-11.797696 11.797696-11.797696h51.589924c6.39875 0 11.797696 5.198985 11.797695 11.797696v66.387033c-0.399922 6.798672-5.598906 11.997657-11.997656 11.997657z" fill="#4C4372" p-id="9504"></path><path d="M637.375513 741.655145H386.624487c-6.39875 0-11.797696-5.198985-11.797695-11.797695v-64.987307c0-6.39875 5.198985-11.797696 11.797695-11.797696h250.950987c6.39875 0 11.797696 5.198985 11.797695 11.797696V730.057411c-0.199961 6.39875-5.398946 11.597735-11.997656 11.597734z m-239.153291-23.39543h227.355595v-41.591877H398.222222v41.591877z" fill="#4C4372" p-id="9505"></path><path d="M756.352275 786.046475H267.647725c-6.39875 0-11.797696-5.198985-11.797696-11.797695V730.057411c0-6.39875 5.198985-11.797696 11.797696-11.797696h488.904511c6.39875 0 11.797696 5.198985 11.797696 11.797696v44.191369c-0.199961 6.39875-5.398946 11.797696-11.997657 11.797695z m-477.106815-23.595391h465.50908v-20.795939H279.24546v20.795939z" fill="#4C4372" p-id="9506"></path><path d="M544.793595 1024h-65.787151c-6.39875 0-11.797696-5.198985-11.797696-11.797696v-237.953524c0-6.39875 5.198985-11.797696 11.797696-11.797696h65.787151c6.39875 0 11.797696 5.198985 11.797696 11.797696v237.953524c0 6.598711-5.198985 11.797696-11.797696 11.797696z m-53.989455-23.395431h42.39172V786.046475h-42.39172v214.558094z" fill="#4C4372" p-id="9507"></path><path d="M459.01035 95.781293c-6.39875 0-11.797696-5.198985-11.797696-11.797696V13.397383c0-6.39875 5.198985-11.797696 11.797696-11.797695 6.39875 0 11.797696 5.198985 11.797695 11.797695v70.586214c0 6.39875-5.398946 11.797696-11.797695 11.797696zM564.98965 95.781293c-6.39875 0-11.797696-5.198985-11.797695-11.797696V13.397383c0-6.39875 5.198985-11.797696 11.797695-11.797695 6.39875 0 11.797696 5.198985 11.797696 11.797695v70.586214c0 6.39875-5.398946 11.797696-11.797696 11.797696z" fill="#4C4372" p-id="9508"></path><path d="M570.188635 223.556337h-116.37727c-6.39875 0-11.797696-5.198985-11.797696-11.797696 0-6.39875 5.198985-11.797696 11.797696-11.797696h116.37727c6.39875 0 11.797696 5.198985 11.797696 11.797696 0 6.598711-5.398946 11.797696-11.797696 11.797696z" fill="#4C4372" p-id="9509"></path><path d="M659.571178 23.595392H364.228862c-6.39875 0-11.797696-5.198985-11.797696-11.797696s5.198985-11.797696 11.797696-11.797696h295.342316c6.39875 0 11.797696 5.198985 11.797695 11.797696s-5.398946 11.797696-11.797695 11.797696z" fill="#4C4372" p-id="9510"></path></svg>