<?xml version="1.0" standalone="no"?><!DOCTYPE svg PUBLIC "-//W3C//DTD SVG 1.1//EN" "http://www.w3.org/Graphics/SVG/1.1/DTD/svg11.dtd"><svg t="1569642408804" class="icon" viewBox="0 0 1024 1024" version="1.1" xmlns="http://www.w3.org/2000/svg" p-id="577" xmlns:xlink="http://www.w3.org/1999/xlink" width="200" height="200"><defs><style type="text/css"></style></defs><path d="M511.999 290.894c73.151 0 138.03 35.38 178.474 89.955l28.299 7.58c-42.243-70.02-119.035-116.843-206.773-116.843-42.384 0-82.213 10.945-116.828 30.136l28.243 7.566c27.136-11.824 57.095-18.394 88.585-18.394z m145.788-12.561l15.494 12.56 4.774-18.822 17.348-10.136-17.348-10.137-4.774-18.824-15.494 12.561-20.298-1.5 7.768 17.9-7.768 17.899 20.298-1.501z m-268.834-42.121l-15.94-11.096-3.478 19.642-16.318 12.166 17.595 8.434 5.853 18.612 14.354-14.43 19.935-0.661-8.722-17.354 6.464-19.02-19.743 3.707z m149.227-27.136l-11.812-15.415-9.288 17.653-19.243 6.63 14.203 13.384-0.081 19.51 18.06-9.383 19.193 5.429-3.036-19.182 11.944-16.157-19.94-2.47z m215.99 121.207l-16.731-11.586-2.384 19.37-15.767 11.483 18.252 9 6.99 18.683 13.655-13.798 20.092 0.06-9.808-17.536 5.424-18.641-19.722 2.965zM971.55 476.15L132.399 251.298c-20.597-5.515-41.769 6.707-47.29 27.302L25.15 502.374c-5.514 20.595 6.708 41.767 27.304 47.288L891.6 774.51c20.602 5.52 41.773-6.701 47.293-27.298l59.954-223.772c5.521-20.602-6.7-41.773-27.297-47.29z m6.151 51.616l-54.96 205.122c-4.14 15.45-20.02 24.616-35.464 20.48l-820.5-219.853c-15.449-4.142-24.616-20.021-20.48-35.465l54.965-205.131c4.136-15.446 20.02-24.611 35.464-20.475l820.5 219.853c15.45 4.136 24.617 20.02 20.475 35.47zM512 165.404c160.823 0 296.101 109.253 335.727 257.58l21.364 5.723C831.04 266.712 685.61 146.1 512.004 146.1c-105.268 0-200.166 44.344-267.06 115.368l21.337 5.717C329.166 204.304 416.04 165.404 512 165.404z m88.591 551.117c-27.141 11.827-57.096 18.398-88.591 18.398-73.147 0-138.026-35.378-178.475-89.96l-28.297-7.58c42.241 70.02 119.035 116.844 206.772 116.844 42.388 0 82.217-10.94 116.834-30.132l-28.243-7.57zM393.46 756.607l-15.369-12.531-4.737 18.778-17.203 10.11 17.203 10.112 4.737 18.783 15.369-12.53 20.136 1.494-7.707-17.858 7.707-17.854-20.136 1.496z m118.479 59.459l11.718 15.383 9.212-17.616 19.086-6.61-14.086-13.354 0.081-19.465-17.915 9.363-19.036-5.418 3.012 19.136-11.845 16.12 19.773 2.46z m-244.04-121.344l15.742 12.702 3.717-19.106 16.415-10.323-17.424-10.237-5.596-19.081-14.49 12.778-19.874-1.47 8.47 18.136-6.687 18.172 19.726-1.571z m244.1 165.682c-160.816 0-296.094-109.252-335.727-257.576l-21.363-5.727c38.05 162 183.485 282.61 357.09 282.61 105.268 0 200.173-44.343 267.062-115.367l-21.339-5.718C694.837 821.51 607.96 860.404 512 860.404z m139.562-70.838l15.838 11.086 3.414-19.582 16.172-12.105-17.48-8.434-5.843-18.567-14.217 14.37-19.784 0.63 8.688 17.313-6.38 18.961 19.592-3.672z m0 0" p-id="578" fill="#d81e06"></path><path d="M366.98 444.13l-26.203 100.142-28.246-7.39 2.24-8.56-31.669-8.286-10.525 40.228-28.246-7.39 10.526-40.229-29.957-7.839-3.36 12.84-27.389-7.165 27.323-104.422 57.346 15.004 4.479-17.118 3.424 0.894c7.257 2.515 13.468 4.44 18.604 5.785 4.986 1.917 7.685 3.239 8.11 3.951 0.261 1.296-0.54 3.216-2.422 5.767-1.174 2.136-1.903 3.775-2.2 4.911l-0.896 3.424 59.06 15.453z m-152.874-90.298l78.742 20.604c0.1-9.72-0.398-15.95-1.512-18.685l0.448-1.712c12.28 1.999 23.558 4.335 33.83 7.022-1.425 12.431-2.078 19.576-1.95 21.438l74.464 19.483-11.422 43.652-29.101-7.614 5.15-19.688-127.531-33.369-4.927 18.83-27.389-7.166 11.198-42.795z m19.12 115.66l-3.582 13.694 31.669 8.286 3.582-13.695-31.669-8.286z m6.232-20.32l30.813 8.063 3.583-13.696-30.813-8.061-3.583 13.695z m52.827 35.77l-3.583 13.696 31.668 8.286 3.582-13.695-31.667-8.286z m8.958-34.235l-3.582 13.695 30.813 8.063 3.583-13.696-30.814-8.062zM392.978 519.52c18.643-17.67 33.806-37.18 45.49-58.514l-23.965-6.271 6.045-23.11 26.534 6.943 11.422-43.652 3.422 0.896c11.408 2.984 17.602 4.92 18.605 5.782 2.275 0.595 3.556 1.545 3.833 2.832-0.15 0.574-0.743 1.635-1.752 3.2-1.323 2.712-2.5 6.061-3.544 10.047l-7.167 27.39 21.398 5.6 4.031-15.407 49.644 12.988c-0.048-9.157-0.172-18.02-0.353-26.613l31.708 4.639c-0.653 7.144-1.688 16.936-3.11 29.365l46.22 12.094-5.822 22.254-57.347-15.005c-4.768 4.24-11.846 10.318-21.231 18.223-5.493 4.663-9.388 7.918-11.695 9.743 8.56 2.238 15.26 3.393 20.135 3.438 5.178-3.517 12.256-9.596 21.229-18.222 1.435-0.84 2.587-1.752 3.463-2.752 15.74 12.05 23.546 18.364 23.4 18.925-0.728 0.424-1.526 1.131-2.383 2.12-12.271 9.594-21.004 16.154-26.183 19.672-30.145 21.99-60.638 37.175-91.484 45.566-3.645-7.04-8.999-14.544-16.063-22.493 21.928-4.623 44.71-13.594 68.32-26.936-20.005-2.79-32.79-4.007-38.372-3.637-1.265-2.16-0.533-10.8 2.215-25.941-0.574-0.15 2.217-0.335 8.377-0.552 4.578-1.231 8.263-3.626 11.02-7.176a772.86 772.86 0 0 0 17.583-18.263l-34.237-8.959-4.255 16.263-22.254-5.822-5.6 21.398 14.631-3.488c2.617 8.616 6.2 21.74 10.728 39.387l-23.678 6.607c-0.429-0.712-0.982-2.085-1.671-4.095-0.815-3.87-2.542-10.11-5.16-18.726l-23.739 90.726-24.82-6.493 19.483-74.465c-8.125 10.077-14.492 16.942-19.11 20.606-2.228-5.458-6.876-12.162-13.94-20.112z m52.51 64.953c52.821-3.855 95.303-22.919 127.448-57.19 14.431 14.75 21.777 22.774 22.055 24.06-0.15 0.575-2.03 1.913-5.623 4.015-2.31 1.842-5.701 4.311-10.168 7.401-3.036 2.264-7.146 5.145-12.326 8.663-5.196 3.528-8.94 6.207-11.247 8.031 4.482 8.488 14.057 21.969 28.742 40.443a141.221 141.221 0 0 0-28.708 15.351c-0.848-1.45-2.878-5.325-6.096-11.654-6.169-11.374-12.286-21.806-18.328-31.316-22.113 7.616-45.284 13.441-69.504 17.48-4.606-10.35-10.031-18.786-16.245-25.284zM624.813 591.154l26.203-100.14 70.184 18.363 10.973-41.94c16.543 4.328 26.162 7.16 28.877 8.47l5.993 1.568c-0.301 1.15-0.892 2.21-1.753 3.2-2.908 4.126-5.18 9.318-6.822 15.591l-5.598 21.398 74.465 19.483-25.53 97.575-31.67-8.286 3.36-12.839-42.796-11.198-19.036 72.754-30.813-8.062 19.036-72.753-41.94-10.973-4.03 15.406-29.103-7.617z m49.033-68.562l-9.853 37.66 41.94 10.975 9.853-37.662-41.94-10.973z m105.695 67.894l9.853-37.66-42.796-11.197-9.853 37.66 42.796 11.197z" p-id="579" fill="#d81e06"></path></svg>