<?xml version="1.0" standalone="no"?><!DOCTYPE svg PUBLIC "-//W3C//DTD SVG 1.1//EN" "http://www.w3.org/Graphics/SVG/1.1/DTD/svg11.dtd"><svg t="1569643057454" class="icon" viewBox="0 0 1024 1024" version="1.1" xmlns="http://www.w3.org/2000/svg" p-id="2526" xmlns:xlink="http://www.w3.org/1999/xlink" width="200" height="200"><defs><style type="text/css"></style></defs><path d="M947.2 813.568h-68.608c-13.312-25.6-37.376-76.8-37.376-103.936 0-10.752 4.096-16.384 11.776-26.624 13.312-17.92 31.744-42.496 31.744-108.032 0-66.56-53.76-120.32-120.32-120.32s-120.32 53.76-120.32 120.32c0 65.024 18.432 90.112 31.744 108.032 7.68 10.24 11.776 15.872 11.776 26.624 0 27.136-24.064 78.336-37.376 103.936h-87.04c-36.864 0-66.56 26.624-66.56 59.904v80.384c0 33.28 29.696 59.904 66.56 59.904h384c36.864 0 66.56-26.624 66.56-59.904v-80.384c0-32.768-29.696-59.904-66.56-59.904z m-228.864-103.936c0-20.992-9.216-33.28-17.92-45.056-12.288-16.384-25.6-34.304-25.6-89.6 0-49.152 40.448-89.6 89.6-89.6s89.6 40.448 89.6 89.6c0 54.784-13.824 73.216-25.6 89.6-8.704 11.776-17.92 24.064-17.92 45.056 0 30.72 19.968 76.288 33.792 103.936h-159.232c13.312-27.136 33.28-73.216 33.28-103.936zM983.04 953.856c0 15.872-15.872 29.184-35.84 29.184h-384c-19.968 0-35.84-13.312-35.84-29.184v-80.384c0-15.872 15.872-29.184 35.84-29.184h384c19.968 0 35.84 13.312 35.84 29.184v80.384z" p-id="2527" fill="#1296db"></path><path d="M779.776 289.28v-2.048-1.024c0-1.024-0.512-1.536-1.024-2.56 0 0 0-0.512-0.512-0.512-0.512-0.512-0.512-1.024-1.024-2.048 0-0.512-0.512-0.512-0.512-0.512-0.512-0.512-0.512-1.024-1.024-1.536l-0.512-0.512-0.512-0.512-295.424-264.704c-4.096-3.584-9.216-4.608-14.336-3.584H76.8c-36.864 0-66.56 29.696-66.56 66.56v870.4c0 36.864 29.696 66.56 66.56 66.56h318.464c8.704 0 15.36-6.656 15.36-15.36s-6.656-15.36-15.36-15.36H76.8c-19.968 0-35.84-15.872-35.84-35.84v-870.4c0-19.968 15.872-35.84 35.84-35.84h376.832v197.632c0 36.864 29.696 66.56 66.56 66.56h228.864v83.456c0 8.704 6.656 15.36 15.36 15.36s15.36-6.656 15.36-15.36v-98.816c0 0.512 0 0.512 0 0z m-259.584-14.848c-19.968 0-35.84-15.872-35.84-35.84v-179.2l240.128 215.04h-204.288z" p-id="2528" fill="#1296db"></path><path d="M469.504 484.864h-327.68c-8.704 0-15.36-6.656-15.36-15.36s6.656-15.36 15.36-15.36h327.68c8.704 0 15.36 6.656 15.36 15.36s-6.656 15.36-15.36 15.36zM469.504 716.8h-327.68c-8.704 0-15.36-6.656-15.36-15.36s6.656-15.36 15.36-15.36h327.68c8.704 0 15.36 6.656 15.36 15.36s-6.656 15.36-15.36 15.36z" p-id="2529" fill="#1296db"></path></svg>